# xmcd CD database file
# Copyright (C) 1996 Ti Kan
#
# Track frame offsets:
#  150
#  33652
#  70670
#  88240
#  120605
#  130802
#  169182
#  179685
#  202315
#  237097
#  273445
#  281982
#  309960
#
# Disc length: 4575 seconds
#
# Revision: 1
# Processed by: cddbd v1.4b41PL1 Copyright (c) Steve Scherf et al.
# Submitted via: CDWizzard Release:4.12
#
DISCID=c711dd0d
DTITLE=[compilation] - solar: a music travelogue
DYEAR=1900
DGENRE=
TTITLE0=Shiva Descending (Tuu)
TTITLE1=Body Song (Jorge Reyes)
TTITLE2=Fleshtones (O Yuki Conjugate)
TTITLE3=Map 23 (Stillpoint)
TTITLE4=Bangkok Thailand, Dec 4th 1995 (Hi-Fi Market)
TTITLE5=Dances of the Harvest (Raksha Mancham)
TTITLE6=Kathmandu, Nepal, Dec 23rd 1995 (Buddhist Funeral Procession)
TTITLE7=Nausea (A Small, Good Thing)
TTITLE8=Treaure of the Mountain (Frank Perry)
TTITLE9=Fruit Flies Before the Seance (Max Eastley)
TTITLE10=Kubutambahan, Bali, Dec 1st 1995 (Roadside Gamelan)
TTITLE11=Dust of Faith (Rapoon)
TTITLE12=Sleep v (Paul Schutze)
EXTD=
EXTT0=
EXTT1=
EXTT2=
EXTT3=
EXTT4=
EXTT5=
EXTT6=
EXTT7=
EXTT8=
EXTT9=
EXTT10=
EXTT11=
EXTT12=
PLAYORDER=
